<?xml version="1.0" encoding="utf-8"?>
<!-- Generator: Adobe Illustrator 29.5.1, SVG Export Plug-In . SVG Version: 9.03 Build 0)  -->
<svg version="1.0" id="Layer_1" xmlns="http://www.w3.org/2000/svg" xmlns:xlink="http://www.w3.org/1999/xlink" x="0px" y="0px"
	 viewBox="0 0 289 122" style="enable-background:new 0 0 289 122;" xml:space="preserve">
<style type="text/css">
	.st0{fill:#FFFFFF;}
</style>
<g>
	<defs>
		<rect id="SVGID_1_" x="0.6" y="28.3" width="57.7" height="60.7"/>
	</defs>
	<clipPath id="SVGID_00000047028891244489111300000009720585136751316150_">
		<use xlink:href="#SVGID_1_"  style="overflow:visible;"/>
	</clipPath>
</g>
<g>
	<g transform="translate(169.693952, 58.99635)">
		<g>
			<path class="st0" d="M87.3,4c0,0.9-0.1,1.9-0.1,2.9H63.8c0.2,2.9,1.2,5.1,3,6.7c1.8,1.6,4,2.4,6.5,2.4c2.1,0,3.8-0.5,5.2-1.5
				c1.4-1,2.4-2.3,3-3.9h5.2c-0.8,2.8-2.3,5.1-4.7,6.9c-2.3,1.8-5.3,2.6-8.7,2.6c-2.8,0-5.3-0.6-7.4-1.9c-2.2-1.2-3.9-3-5.1-5.3
				c-1.2-2.3-1.9-4.9-1.9-8c0-3,0.6-5.7,1.8-7.9c1.2-2.3,2.9-4,5.1-5.2c2.2-1.2,4.7-1.8,7.5-1.8c2.8,0,5.2,0.6,7.3,1.8
				c2.1,1.2,3.8,2.9,4.9,5C86.7-1.1,87.3,1.3,87.3,4z M82.3,2.9c0-1.8-0.4-3.4-1.2-4.8c-0.8-1.3-1.9-2.3-3.3-3c-1.4-0.7-3-1-4.6-1
				c-2.5,0-4.6,0.8-6.3,2.4c-1.7,1.6-2.7,3.7-3,6.5H82.3z"/>
		</g>
	</g>
</g>
<g>
	<path class="st0" d="M70.9,65.7c0-2.2,0.4-4.1,1.1-5.9c0.7-1.8,1.7-3.3,2.9-4.6c1.2-1.3,2.6-2.3,4.2-3s3.3-1.1,5-1.1
		c1.9,0,3.6,0.3,5.1,0.9c1.5,0.6,2.8,1.5,4,2.6v-2.9h6.8v27.9h-5.7l-1-3c-1.1,1.1-2.5,2-4,2.6s-3.2,0.9-5.1,0.9
		c-1.7,0-3.4-0.4-5-1.1s-3-1.7-4.2-3s-2.2-2.8-2.9-4.6C71.2,69.8,70.9,67.8,70.9,65.7z M77.7,65.7c0,1.2,0.2,2.3,0.5,3.3
		c0.4,1,0.9,1.9,1.6,2.6s1.5,1.3,2.5,1.7c1,0.4,2,0.6,3.2,0.6c1.1,0,2.2-0.2,3.2-0.6s1.8-1,2.5-1.7s1.2-1.6,1.6-2.6s0.5-2.1,0.5-3.3
		c0-1.1-0.2-2.2-0.5-3.2c-0.4-1-0.9-1.9-1.6-2.6c-0.7-0.7-1.5-1.3-2.5-1.7s-2-0.6-3.2-0.6s-2.3,0.2-3.2,0.6c-1,0.4-1.8,1-2.5,1.7
		s-1.2,1.6-1.6,2.6S77.7,64.6,77.7,65.7z"/>
	<path class="st0" d="M106.2,40.5h6.8v39.2h-6.8V40.5z"/>
	<path class="st0" d="M117.7,51.8h4.2V44h6.8v7.8h10.8V57h-10.8v12.5c0,1.8,0.4,3.1,1.1,3.8c0.7,0.7,1.7,1,2.9,1
		c1.1,0,2.4-0.2,3.9-0.6s3.1-0.8,4.9-1.3v6.5c-3.6,0.9-6.7,1.3-9.3,1.3c-3.7,0-6.3-0.9-7.9-2.7c-1.6-1.8-2.4-4.5-2.4-8.1V57h-4.2
		L117.7,51.8L117.7,51.8z"/>
	<path class="st0" d="M144.1,65.8c0-2.2,0.3-4.2,1-6s1.7-3.3,2.9-4.6c1.3-1.3,2.8-2.3,4.6-3s3.8-1,6-1s4.1,0.3,5.9,1
		c1.8,0.7,3.3,1.7,4.6,3s2.3,2.8,3,4.6s1,3.8,1,6s-0.3,4.2-1,6s-1.7,3.3-3,4.6c-1.3,1.3-2.8,2.3-4.6,2.9c-1.8,0.7-3.8,1-5.9,1
		c-2.2,0-4.2-0.3-6-1s-3.3-1.7-4.6-2.9c-1.3-1.3-2.3-2.8-2.9-4.6C144.5,69.9,144.1,68,144.1,65.8z M150.8,65.8
		c0,1.2,0.2,2.3,0.6,3.3c0.4,1,0.9,1.9,1.6,2.6c0.7,0.7,1.5,1.3,2.5,1.8c1,0.4,2,0.7,3.2,0.7s2.3-0.2,3.2-0.7c1-0.4,1.8-1,2.5-1.8
		c0.7-0.7,1.2-1.6,1.6-2.6c0.4-1,0.5-2.1,0.5-3.3c0-1.2-0.2-2.3-0.5-3.3c-0.4-1-0.9-1.9-1.6-2.7c-0.7-0.7-1.5-1.3-2.5-1.7
		s-2-0.6-3.2-0.6s-2.3,0.2-3.2,0.6c-1,0.4-1.8,1-2.5,1.7s-1.2,1.6-1.6,2.7C151,63.5,150.8,64.6,150.8,65.8z"/>
	<path class="st0" d="M197.5,58c-1.5-0.6-3.1-0.9-4.7-0.9c-1,0-2.1,0.1-3.1,0.4c-1,0.3-1.9,0.7-2.6,1.2c-0.7,0.6-1.3,1.3-1.8,2.1
		c-0.5,0.9-0.7,1.9-0.7,3v15.9h-6.7V51.8h5.7l1,4c0.5-0.9,1.1-1.6,1.8-2.2c0.7-0.6,1.5-1.1,2.4-1.4c0.9-0.3,1.8-0.6,2.7-0.8
		c1-0.2,1.9-0.2,2.8-0.2c0.6,0,1.1,0,1.6,0.1s1,0.1,1.5,0.2V58H197.5z"/>
	<path class="st0" d="M214.2,51.2c1.9,0,3.7,0.3,5.3,0.8s3,1.3,4.3,2.3c1.2,1,2.3,2.2,3.1,3.6c0.8,1.4,1.4,3,1.7,4.7
		c0.2,0.8,0.3,1.7,0.3,2.6c0,0.9,0,1.8,0,2.6h-22.1c0.2,0.9,0.6,1.7,1,2.5c0.5,0.8,1.1,1.4,1.8,2s1.5,1,2.3,1.3
		c0.9,0.3,1.8,0.5,2.8,0.5c1.9,0,3.5-0.3,4.8-1c1.2-0.7,2.3-1.6,3.1-2.7l5.3,2.9c-1.2,2.2-2.9,3.9-5.3,5.1c-2.3,1.2-5,1.8-7.9,1.8
		c-2.2,0-4.2-0.3-6.1-1c-1.8-0.7-3.4-1.7-4.8-3c-1.3-1.3-2.4-2.8-3.1-4.6c-0.7-1.8-1.1-3.8-1.1-6s0.3-4.1,1-5.9
		c0.7-1.8,1.7-3.3,3-4.6s2.8-2.3,4.6-2.9C210,51.5,212,51.2,214.2,51.2z M221.7,62.5c-0.5-1.4-1.4-2.6-2.6-3.6c-1.2-1-2.9-1.5-5-1.5
		c-1.7,0-3.2,0.5-4.5,1.5c-1.2,1-2.1,2.2-2.6,3.6H221.7z"/>
	<path class="st0" d="M255.1,59.7c-0.6-0.4-1.2-0.8-2-1.1s-1.6-0.6-2.5-0.8s-1.8-0.3-2.8-0.4c-0.9-0.1-1.9-0.2-2.8-0.2
		c-0.8,0-1.6,0-2.3,0.1s-1.4,0.2-1.9,0.4c-0.6,0.2-1,0.4-1.3,0.7s-0.4,0.6-0.4,0.9c0,0.3,0.1,0.6,0.3,0.9c0.2,0.3,0.5,0.5,1,0.8
		c0.8,0.4,1.9,0.7,3.3,0.9c1.3,0.2,2.7,0.5,4.2,0.8c1.4,0.3,2.8,0.6,4.2,0.9c1.4,0.3,2.5,0.8,3.4,1.3c1.4,0.9,2.4,2,3,3.3
		c0.6,1.4,0.8,2.7,0.7,4.1c-0.2,1.4-0.7,2.7-1.6,3.9c-0.9,1.2-2.1,2.1-3.7,2.6c-1.1,0.4-2.5,0.7-4,1c-1.5,0.2-3.1,0.4-4.8,0.4
		c-1.3,0-2.5-0.1-3.7-0.2s-2.4-0.4-3.6-0.7c-1.1-0.3-2.2-0.7-3.2-1.2s-1.9-1.1-2.6-1.8l2.6-5.4c0.6,0.5,1.3,1,2.3,1.3
		c0.9,0.4,1.9,0.7,3,0.9c1.1,0.3,2.2,0.5,3.3,0.6s2.2,0.2,3.3,0.2c1,0,1.9-0.1,2.7-0.2s1.4-0.3,1.9-0.5c0.9-0.5,1.4-1,1.4-1.5
		s-0.4-1-1.1-1.4c-0.8-0.5-1.9-0.9-3.3-1.1c-1.4-0.3-2.9-0.6-4.5-0.8c-1.6-0.3-3.1-0.6-4.6-1s-2.7-1-3.7-1.7c-1.1-0.9-1.9-2-2.4-3.3
		s-0.7-2.6-0.5-3.9c0.1-1.3,0.6-2.5,1.4-3.7c0.8-1.1,1.9-2,3.3-2.5c1.1-0.4,2.4-0.7,3.8-1c1.4-0.2,2.9-0.3,4.5-0.3
		c1.1,0,2.3,0.1,3.4,0.2c1.1,0.1,2.3,0.3,3.3,0.6c1.1,0.3,2.1,0.6,3,1c1,0.4,1.8,0.9,2.5,1.5L255.1,59.7z"/>
</g>
<rect x="38.3" y="60.6" class="st0" width="13.4" height="21.9"/>
<path class="st0" d="M26.2,69.8c-6.6,0-12-5.4-12-12s5.4-12,12-12c4.6,0,8.5,2.5,10.6,6.3l12-5.6c-1.4-2.8-4.2-7.1-8.5-9.9
	C19.6,22.8-4.6,44.9,3.9,67.3c3.9,10.4,15,16.3,26,15.2V69.2C28.7,69.6,27.5,69.8,26.2,69.8z"/>
<rect x="38.3" y="60.6" class="st0" width="13.4" height="21.9"/>
<path class="st0" d="M26.2,69.8c-6.6,0-12-5.4-12-12s5.4-12,12-12c4.6,0,8.5,2.5,10.6,6.3l12-5.6c-1.4-2.8-4.2-7.1-8.5-9.9
	C19.6,22.8-4.6,44.9,3.9,67.3c3.9,10.4,15,16.3,26,15.2V69.2C28.7,69.6,27.5,69.8,26.2,69.8z"/>
</svg>
