<?xml version="1.0" encoding="utf-8"?>
<!-- Generator: Adobe Illustrator 29.5.1, SVG Export Plug-In . SVG Version: 9.03 Build 0)  -->
<svg version="1.0" id="Layer_1" xmlns="http://www.w3.org/2000/svg" xmlns:xlink="http://www.w3.org/1999/xlink" x="0px" y="0px"
	 viewBox="0 0 289 122" style="enable-background:new 0 0 289 122;" xml:space="preserve">
<style type="text/css">
	.st0{fill:#221F20;}
</style>
<g>
	<path class="st0" d="M72,64.4c0-2.2,0.4-4.1,1.1-5.9c0.7-1.8,1.7-3.3,2.9-4.6c1.2-1.3,2.6-2.3,4.2-3c1.6-0.7,3.3-1.1,5-1.1
		c1.9,0,3.6,0.3,5.1,0.9c1.5,0.6,2.8,1.5,4,2.6v-2.9h6.8v27.9h-5.7l-1-3c-1.1,1.1-2.5,2-4,2.6c-1.5,0.6-3.2,0.9-5.1,0.9
		c-1.7,0-3.4-0.4-5-1.1c-1.6-0.7-3-1.7-4.2-3c-1.2-1.3-2.2-2.8-2.9-4.6C72.3,68.5,72,66.5,72,64.4z M78.8,64.4
		c0,1.2,0.2,2.3,0.5,3.3c0.4,1,0.9,1.9,1.6,2.6c0.7,0.7,1.5,1.3,2.5,1.7c1,0.4,2,0.6,3.2,0.6c1.1,0,2.2-0.2,3.2-0.6
		c1-0.4,1.8-1,2.5-1.7c0.7-0.7,1.2-1.6,1.6-2.6c0.4-1,0.5-2.1,0.5-3.3c0-1.1-0.2-2.2-0.5-3.2c-0.4-1-0.9-1.9-1.6-2.6
		c-0.7-0.7-1.5-1.3-2.5-1.7c-1-0.4-2-0.6-3.2-0.6c-1.2,0-2.3,0.2-3.2,0.6c-1,0.4-1.8,1-2.5,1.7c-0.7,0.7-1.2,1.6-1.6,2.6
		C78.9,62.2,78.8,63.3,78.8,64.4z"/>
	<path class="st0" d="M107.3,39.2h6.8v39.2h-6.8V39.2z"/>
	<path class="st0" d="M118.8,50.5h4.2v-7.8h6.8v7.8h10.8v5.2h-10.8v12.5c0,1.8,0.4,3.1,1.1,3.8c0.7,0.7,1.7,1,2.9,1
		c1.1,0,2.4-0.2,3.9-0.6c1.5-0.4,3.1-0.8,4.9-1.3v6.5c-3.6,0.9-6.7,1.3-9.3,1.3c-3.7,0-6.3-0.9-7.9-2.7c-1.6-1.8-2.4-4.5-2.4-8.1
		V55.7h-4.2V50.5z"/>
	<path class="st0" d="M145.2,64.5c0-2.2,0.3-4.2,1-6c0.7-1.8,1.7-3.3,2.9-4.6c1.3-1.3,2.8-2.3,4.6-3c1.8-0.7,3.8-1,6-1
		c2.2,0,4.1,0.3,5.9,1c1.8,0.7,3.3,1.7,4.6,3c1.3,1.3,2.3,2.8,3,4.6c0.7,1.8,1,3.8,1,6c0,2.2-0.3,4.2-1,6c-0.7,1.8-1.7,3.3-3,4.6
		c-1.3,1.3-2.8,2.3-4.6,2.9c-1.8,0.7-3.8,1-5.9,1c-2.2,0-4.2-0.3-6-1c-1.8-0.7-3.3-1.7-4.6-2.9c-1.3-1.3-2.3-2.8-2.9-4.6
		C145.6,68.6,145.2,66.7,145.2,64.5z M151.9,64.5c0,1.2,0.2,2.3,0.6,3.3c0.4,1,0.9,1.9,1.6,2.6c0.7,0.7,1.5,1.3,2.5,1.8
		c1,0.4,2,0.7,3.2,0.7c1.2,0,2.3-0.2,3.2-0.7c1-0.4,1.8-1,2.5-1.8c0.7-0.7,1.2-1.6,1.6-2.6c0.4-1,0.5-2.1,0.5-3.3
		c0-1.2-0.2-2.3-0.5-3.3c-0.4-1-0.9-1.9-1.6-2.7c-0.7-0.7-1.5-1.3-2.5-1.7c-1-0.4-2-0.6-3.2-0.6c-1.2,0-2.3,0.2-3.2,0.6
		c-1,0.4-1.8,1-2.5,1.7c-0.7,0.7-1.2,1.6-1.6,2.7C152.1,62.2,151.9,63.3,151.9,64.5z"/>
	<path class="st0" d="M198.6,56.7c-1.5-0.6-3.1-0.9-4.7-0.9c-1,0-2.1,0.1-3.1,0.4c-1,0.3-1.9,0.7-2.6,1.2c-0.7,0.6-1.3,1.3-1.8,2.1
		c-0.5,0.9-0.7,1.9-0.7,3v15.9H179V50.5h5.7l1,4c0.5-0.9,1.1-1.6,1.8-2.2c0.7-0.6,1.5-1.1,2.4-1.4c0.9-0.3,1.8-0.6,2.7-0.8
		c1-0.2,1.9-0.2,2.8-0.2c0.6,0,1.1,0,1.6,0.1c0.5,0.1,1,0.1,1.5,0.2V56.7z"/>
	<path class="st0" d="M215.3,49.9c1.9,0,3.7,0.3,5.3,0.8c1.6,0.5,3,1.3,4.3,2.3c1.2,1,2.3,2.2,3.1,3.6c0.8,1.4,1.4,3,1.7,4.7
		c0.2,0.8,0.3,1.7,0.3,2.6c0,0.9,0,1.8,0,2.6h-22.1c0.2,0.9,0.6,1.7,1,2.5c0.5,0.8,1.1,1.4,1.8,2c0.7,0.6,1.5,1,2.3,1.3
		c0.9,0.3,1.8,0.5,2.8,0.5c1.9,0,3.5-0.3,4.8-1c1.2-0.7,2.3-1.6,3.1-2.7L229,72c-1.2,2.2-2.9,3.9-5.3,5.1c-2.3,1.2-5,1.8-7.9,1.8
		c-2.2,0-4.2-0.3-6.1-1c-1.8-0.7-3.4-1.7-4.8-3c-1.3-1.3-2.4-2.8-3.1-4.6c-0.7-1.8-1.1-3.8-1.1-6c0-2.2,0.3-4.1,1-5.9
		c0.7-1.8,1.7-3.3,3-4.6c1.3-1.3,2.8-2.3,4.6-2.9C211.1,50.2,213.1,49.9,215.3,49.9z M222.8,61.2c-0.5-1.4-1.4-2.6-2.6-3.6
		c-1.2-1-2.9-1.5-5-1.5c-1.7,0-3.2,0.5-4.5,1.5c-1.2,1-2.1,2.2-2.6,3.6H222.8z"/>
	<path class="st0" d="M256.2,58.4c-0.6-0.4-1.2-0.8-2-1.1c-0.8-0.3-1.6-0.6-2.5-0.8c-0.9-0.2-1.8-0.3-2.8-0.4
		c-0.9-0.1-1.9-0.2-2.8-0.2c-0.8,0-1.6,0-2.3,0.1c-0.7,0.1-1.4,0.2-1.9,0.4c-0.6,0.2-1,0.4-1.3,0.7c-0.3,0.3-0.4,0.6-0.4,0.9
		c0,0.3,0.1,0.6,0.3,0.9c0.2,0.3,0.5,0.5,1,0.8c0.8,0.4,1.9,0.7,3.3,0.9c1.3,0.2,2.7,0.5,4.2,0.8c1.4,0.3,2.8,0.6,4.2,0.9
		c1.4,0.3,2.5,0.8,3.4,1.3c1.4,0.9,2.4,2,3,3.3c0.6,1.4,0.8,2.7,0.7,4.1c-0.2,1.4-0.7,2.7-1.6,3.9c-0.9,1.2-2.1,2.1-3.7,2.6
		c-1.1,0.4-2.5,0.7-4,1c-1.5,0.2-3.1,0.4-4.8,0.4c-1.3,0-2.5-0.1-3.7-0.2c-1.2-0.1-2.4-0.4-3.6-0.7c-1.1-0.3-2.2-0.7-3.2-1.2
		c-1-0.5-1.9-1.1-2.6-1.8l2.6-5.4c0.6,0.5,1.3,1,2.3,1.3c0.9,0.4,1.9,0.7,3,0.9c1.1,0.3,2.2,0.5,3.3,0.6c1.1,0.1,2.2,0.2,3.3,0.2
		c1,0,1.9-0.1,2.7-0.2c0.8-0.1,1.4-0.3,1.9-0.5c0.9-0.5,1.4-1,1.4-1.5c0-0.5-0.4-1-1.1-1.4c-0.8-0.5-1.9-0.9-3.3-1.1
		c-1.4-0.3-2.9-0.6-4.5-0.8c-1.6-0.3-3.1-0.6-4.6-1c-1.5-0.4-2.7-1-3.7-1.7c-1.1-0.9-1.9-2-2.4-3.3c-0.5-1.3-0.7-2.6-0.5-3.9
		c0.1-1.3,0.6-2.5,1.4-3.7c0.8-1.1,1.9-2,3.3-2.5c1.1-0.4,2.4-0.7,3.8-1c1.4-0.2,2.9-0.3,4.5-0.3c1.1,0,2.3,0.1,3.4,0.2
		c1.1,0.1,2.3,0.3,3.3,0.6c1.1,0.3,2.1,0.6,3,1c1,0.4,1.8,0.9,2.5,1.5L256.2,58.4z"/>
</g>
<rect x="39.4" y="59.3" width="13.4" height="21.9"/>
<path d="M27.3,68.5c-6.6,0-12-5.4-12-12s5.4-12,12-12c4.6,0,8.5,2.5,10.6,6.3l12-5.6c-1.4-2.8-4.2-7.1-8.5-9.9
	C20.7,21.5-3.5,43.6,5,66c3.9,10.4,15,16.3,26,15.2V67.9C29.8,68.3,28.6,68.5,27.3,68.5z"/>
<rect x="39.4" y="59.3" width="13.4" height="21.9"/>
<path d="M27.3,68.5c-6.6,0-12-5.4-12-12s5.4-12,12-12c4.6,0,8.5,2.5,10.6,6.3l12-5.6c-1.4-2.8-4.2-7.1-8.5-9.9
	C20.7,21.5-3.5,43.6,5,66c3.9,10.4,15,16.3,26,15.2V67.9C29.8,68.3,28.6,68.5,27.3,68.5z"/>
</svg>
